<mxfile host="app.diagrams.net" modified="2023-02-02T15:01:53.656Z" agent="5.0 (Macintosh; Intel Mac OS X 10_15_7) AppleWebKit/537.36 (KHTML, like Gecko) Chrome/109.0.0.0 Safari/537.36" etag="9YS754IWiawlP2WUvieZ" version="20.8.3" type="github">
  <diagram id="UBF-FnSagC11Ai5j9zGx" name="Page-1">
    <mxGraphModel dx="1594" dy="616" grid="0" gridSize="10" guides="1" tooltips="1" connect="1" arrows="1" fold="1" page="0" pageScale="1" pageWidth="850" pageHeight="1100" math="0" shadow="0">
      <root>
        <mxCell id="0" />
        <mxCell id="1" parent="0" />
        <mxCell id="voVnFURvg96XwZeY2Ra6-1" value="Start" style="ellipse;whiteSpace=wrap;html=1;" vertex="1" parent="1">
          <mxGeometry x="-9" y="22" width="75" height="50" as="geometry" />
        </mxCell>
      </root>
    </mxGraphModel>
  </diagram>
</mxfile>
